<?xml version="1.0" encoding="UTF-8" standalone="no"?>
<!-- Created with Inkscape (http://www.inkscape.org/) -->

<svg
   xmlns:dc="http://purl.org/dc/elements/1.1/"
   xmlns:cc="http://creativecommons.org/ns#"
   xmlns:rdf="http://www.w3.org/1999/02/22-rdf-syntax-ns#"
   xmlns:svg="http://www.w3.org/2000/svg"
   xmlns="http://www.w3.org/2000/svg"
   xmlns:sodipodi="http://sodipodi.sourceforge.net/DTD/sodipodi-0.dtd"
   xmlns:inkscape="http://www.inkscape.org/namespaces/inkscape"
   width="45.385284mm"
   height="67.73333mm"
   viewBox="0 0 45.385284 67.73333"
   version="1.1"
   id="svg8"
   inkscape:version="0.92.3 (2405546, 2018-03-11)"
   sodipodi:docname="noddsoc.svg">
  <defs
     id="defs2" />
  <sodipodi:namedview
     id="base"
     pagecolor="#ffffff"
     bordercolor="#666666"
     borderopacity="1.0"
     inkscape:pageopacity="0.0"
     inkscape:pageshadow="2"
     inkscape:zoom="0.7"
     inkscape:cx="500.21376"
     inkscape:cy="55.870369"
     inkscape:document-units="mm"
     inkscape:current-layer="layer1"
     showgrid="false"
     inkscape:window-width="1920"
     inkscape:window-height="1017"
     inkscape:window-x="-8"
     inkscape:window-y="-8"
     inkscape:window-maximized="1"
     fit-margin-top="0"
     fit-margin-left="0"
     fit-margin-right="0"
     fit-margin-bottom="0" />
  <metadata
     id="metadata5">
    <rdf:RDF>
      <cc:Work
         rdf:about="">
        <dc:format>image/svg+xml</dc:format>
        <dc:type
           rdf:resource="http://purl.org/dc/dcmitype/StillImage" />
        <dc:title></dc:title>
      </cc:Work>
    </rdf:RDF>
  </metadata>
  <g
     inkscape:label="Layer 1"
     inkscape:groupmode="layer"
     id="layer1"
     transform="translate(-97.708886,-40.613381)">
    <path
       style="fill:#030303;stroke-width:0.26458332"
       d="m 117.59761,106.82387 c -1.84396,-1.87181 -3.8192,-5.14855 -4.85869,-8.060118 -0.62735,-1.75719 -0.8263,-2.872031 -1.00484,-5.630579 -0.12243,-1.891771 -0.36615,-3.856302 -0.54159,-4.365631 -0.35374,-1.026961 -3.22691,-4.93776 -4.07742,-5.549971 -0.29845,-0.214829 -0.78076,-0.642049 -1.07181,-0.949389 -1.00354,-1.05973 -1.86073,-1.40899 -4.49791,-1.832681 -3.586864,-0.57627 -3.836464,-0.636331 -3.836464,-0.923219 0,-0.137141 0.50601,-0.37515 1.12448,-0.52891 2.401474,-0.597072 5.830894,-1.58093 5.959744,-1.709771 0.0744,-0.0744 -0.65939,-0.97776 -1.63069,-2.0074 -2.31035,-2.449081 -3.234584,-3.73082 -4.161854,-5.771761 -1.31534,-2.895069 -1.07703,-3.073129 1.839424,-1.37446 2.4228,1.41115 5.96273,2.776432 6.58232,2.538683 0.31473,-0.120783 0.36148,-0.409753 0.21948,-1.356723 -0.23561,-1.571119 -0.83527,-3.928999 -1.35785,-5.339089 l -0.41673,-1.12447 c -2.33749,-4.24648 0.41673,1.12447 -2.33749,-4.24648 0,-0.15274 -0.17551,-0.61712 -0.39003,-1.03195 -0.21451,-0.41483 -0.7603,-1.74837 -1.21286,-2.96342 -0.71385,-1.91656 -0.86032,-2.76995 -1.10573,-6.44253 -0.28283,-4.23242 -0.0906,-7.28863 0.45966,-7.30832 0.14552,-0.005 0.51882,0.80359 0.82956,1.79734 0.65316,2.08886 2.85095,6.39024 4.43218,8.6744 0.97452,1.40775 4.42076,4.64179 4.94635,4.64179 0.11275,0 0.35276,-0.66028 0.53337,-1.46729 0.3825,-1.70923 0.6399,-1.99146 0.89219,-0.97828 0.48719,1.95648 3.11865,5.14311 3.86578,4.68136 0.10862,-0.0671 0.46217,-0.66881 0.78567,-1.33707 0.64241,-1.32705 1.82911,-2.2191 2.95413,-2.22065 0.93469,-0.001 2.3603,1.25779 2.97989,2.63181 0.26572,0.58925 0.56879,1.07137 0.67349,1.07137 0.57323,0 2.50042,-2.2198 3.266,-3.76189 l 0.88247,-1.77751 0.30394,1.01446 c 0.16715,0.55795 0.30394,1.26853 0.30394,1.57907 0,0.82897 0.39403,0.70356 2.06836,-0.65828 1.50203,-1.22171 2.61573,-2.41749 3.68985,-3.96181 0.81281,-1.16861 4.02974,-7.57409 4.03063,-8.02567 0.001,-0.55641 0.60666,-2.13545 0.81896,-2.13545 0.6152,0 0.85206,3.6194 0.50421,7.70433 -0.3211,3.77064 -0.84659,5.79182 -2.48548,9.55973 l -0.43155,0.99219 c -2.09598,3.96875 0,0 -2.09598,3.96875 l -0.37157,0.7276 c -0.51381,1.00612 -1.4941,5.116361 -1.4941,6.264591 0,0.610018 0.12477,0.945309 0.35177,0.945309 0.60308,0 4.2321,-1.376929 5.20448,-1.974689 0.50932,-0.3131 1.55112,-0.891 2.3151,-1.284221 l 1.38906,-0.71494 v 0.710421 c 0,1.45783 -1.81027,4.456589 -4.30866,7.137418 l -2.41166,2.587752 2.3424,0.72148 c 1.28832,0.396808 2.83016,0.80179 3.42631,0.899959 2.57676,0.424309 2.07222,0.92969 -1.42963,1.43203 -1.23693,0.177441 -2.68128,0.471551 -3.20969,0.653572 -1.988,0.684868 -5.75514,4.63877 -6.91504,7.257888 -0.39372,0.889029 -0.59596,2.099961 -0.73512,4.40145 -0.2013,3.329741 -0.81857,5.891702 -2.01913,8.380339 -0.9851,2.042 -2.8233,4.71874 -4.19831,6.11345 -1.14055,1.15689 -1.32839,1.24892 -2.54921,1.24892 -1.25442,0 -1.3902,-0.0734 -2.81811,-1.52284 z m 0.29756,-9.655809 c -0.13828,-0.181899 -0.45678,-0.886889 -0.70778,-1.566649 -0.55901,-1.513951 -1.02297,-1.96883 -1.46495,-1.43629 -0.42789,0.51558 0.20089,1.995929 1.17235,2.76008 0.80648,0.634378 1.40926,0.780709 1.00038,0.242859 z m 6.27885,-0.42912 c 0.81318,-0.813171 1.2093,-1.886969 0.94763,-2.56885 -0.32343,-0.842849 -0.80541,-0.30026 -1.95803,2.20422 -0.42411,0.921519 -0.4482,1.124481 -0.13348,1.124481 0.21122,0 0.72596,-0.341931 1.14388,-0.759851 z m -7.22752,-17.92319 c 0.0533,-0.16197 -0.24485,-0.43606 -0.66255,-0.609079 -1.04664,-0.43353 -2.63156,-2.02593 -3.27843,-3.29389 -0.48354,-0.94783 -0.56691,-1.005351 -0.81491,-0.562211 -0.32296,0.577109 -0.2957,2.473971 0.0486,3.379481 0.34539,0.908449 1.75733,1.525878 3.30827,1.446688 0.71617,-0.0366 1.34574,-0.199009 1.39904,-0.360989 z m 10.86229,-0.278159 c 0.89821,-0.667869 1.33897,-2.68918 0.85595,-3.925261 l -0.31018,-0.79375 -0.63172,1.233541 c -0.59837,1.168389 -2.17234,2.687489 -3.49689,3.374969 -1.00512,0.5217 -0.38655,0.883629 1.3015,0.761529 1.01213,-0.0732 1.81076,-0.301119 2.28134,-0.651028 z"
       id="path834"
       inkscape:connector-curvature="0"
       sodipodi:nodetypes="cccscccscccssccsccccscscsccccccscccscccscscccsscccscccccccccsscccccccccscccccccccccccccc" />
  </g>
</svg>
